<?xml version="1.0" encoding="UTF-8"?>
<!DOCTYPE svg PUBLIC "-//W3C//DTD SVG 1.1//EN" "http://www.w3.org/Graphics/SVG/1.1/DTD/svg11.dtd">
<svg version="1.1" id="Layer_1" xmlns="http://www.w3.org/2000/svg" xmlns:xlink="http://www.w3.org/1999/xlink" x="0px" y="0px" viewBox="0 0 1405.415 1705.922" enable-background="new 0 0 1405.415 1705.922" xml:space="preserve">
<path fill="#1F1F1F" d="M325.566,60.7c9.575-6.214,21.424-6.259,32.373-7.739c2.501,0.518,8.872,2.265,15.201,0.152  c48.262,1.995,82.818,35.027,74.365,100.426c12.285-0.874,1.385,17.291-1.284,32.328c-4.653,22.982-3.332,19.392-14.292,28.735  l-0.143,0.357c-13.216,40.777-21.397,55.561-6.526,63.863c1.004,0.499,69.04,32.89,80.91,50.124  c21.356,30.82,50.3,79.547,56.98,116.376c8,41.816,8.072,62.952,19.81,76.755c76.005,87.624,62.689,56.822,85.171,63.916  c35.165,22.498,26.585,30.1,77.611,17.698c28.591-8.064,18.001-6.153,45.987-26.337c18.113-14.128,44.509-11.762,59.066-33.746  c26.351-36.532,55.752-50.139,62.793-80.437c0.673-3.105,1.628-19.26,25.365-48.109c29.912-35.845,64.719-27.628,87.944-54.341  c6.625-7.408,9.891-12.432,9.201-24.75c-19.172-16.067-22.495-33.297-13.471-53.85c6.932-16.134-8.274-64.342-10.752-80.285  c1.328-1.596,1.311-4.315,0.036-5.929c5.709-26.604-12.93-14.911-5.51-36.946c7.14-20.814,20.034-31.318,36.117-33.978  c-3.914-1.953-7.712-5.073-8.853-9.46c0.196-0.41,0.606-1.213,0.811-1.623c7.846,2.229,15.977,3.103,24.063,4.003  c-23.431-17.463-26.413-17.653-27.086-21.13c-0.852-3.833,0.236-8.207,6.303-7.213c5.824,2.73,4.943,5.022,33.139,17.029  c-5.098-4.77-12.957-11.583-8.167-21.415c4.447-9.59,14.054,16.554,39.434,21.629c-0.214,0.33-0.651,1.007-0.865,1.346  c7.438,0.68,7.498-0.282,9.486-0.758c6.406,0.083,14.658,0.036,14.978,0.045c2.919,1.606,17.649,0.827,20.363,0.392l0.678-1.123  c1.391-0.06,3.435-0.208,6.526-0.125c2.543,1.291,32.075,1.339,34.673,0.009c29.548,1.498,71.548,10.294,100.221,17.564  c61.521,16.495,68.382,25.978,72.003,40.424c8.027,34.234-116.206,166.81-141.509,191.784c-0.57,0.119-0.25,0.053-1.444,0.294  c-0.158,1.427-0.703,16.21,0.722,18.767c-1.258,40.326-8.771,23.533,9.522,43.517c30.953,35.306,38.657,49.063,38.774,67.67  c-1.846,1.15-1.596,4.502-0.196,5.973c-2.253,32.768-19.463,49.646-20.684,83.201c-0.24,46.217,3.229,24.322-8.604,68.08  c-18.397,69.339-11.554,71.209-29.065,131.292c-9.986,34.195-8.779,36.42-9.504,49.25c0.891,0.455,1.819,0.927,2.746,1.409  c-0.589-0.134-1.774-0.41-2.363-0.544c0.344,17.191,11.255,39.087,18.447,100.996c0.071,0.963,0.232,2.095,1.132,2.71  c-0.385,13.305,1.623,26.154,1.284,64.728l0.553,0.633c-1.085,3.43-0.369,4.419-0.981,26.613c0.136,29.279-5.27,92.605-5.34,93.605  c-6.674,60.3-5.329,53.289-58.326,117.125c3.406,23.867,5.474,47.913,7.534,71.931c34.17,17.852,44.343,29.531,65.717,60.065  c9.968,15.692,9.103,35.618,4.378,52.923c-14.696,51.886-37.073,38.044-36.019,31.847c0.999-4.966,5.733-8.238,6.624-13.213  c-5.224,0.009-9.745,2.969-14.425,4.886c-15.148,6.66-31.454,10.743-47.931,12.143c1.247,48.302,30.776,19.385,20.31,91.056  c-3.629,0.526-7.266,0.981-10.833,1.792c-0.99,11.51-4.966,22.476-8.354,33.451c-14.792,43.745-4.527,77.479-63.078,74.294  c-12.727-1.701-17.793-13.218-20.221-16.94c-7.9-34.886,54.237-73.74,33.345-174.149c-11.318,5.667-57.917,10.794-62.24,0  c-0.878-7.051,5.003-35.95,6.49-42.875c-4.797,7.436-8.826,15.362-13.32,22.993c-6.411,12.448-5.533,4.082-9.139,34.218  c0,0,2.59,16.915,3.522,33.844c0.104,4.119,8.479,19.197,12.999,25.731c2.476,3.676,14.857,12.394,11.76,37.633  c-4.22,22.984-43.36,23.634-70.246-26.89c-6.023-14.545-7.582-38.423-12.732-52.754c-4.84-13.294-9.827-12.85-16.128-17.76  c-6.686-5.494-15.774,12.411-21.781,23.323c-2.595-1.065-6.588-3.453-9.433-5.18c20.188-26.803,6.275-23.667,4.476-38.908  c1.219-2.987,0.975-13.908,0.25-15.139c-0.455,4.663-0.036,9.353-0.401,14.024c-1.557-10.506-0.593-42.57,22.771-44.899  c1.497,1.412,10.113,1.031,12.482,0.089c1.034,0.062,2.086,0.151,3.156,0.267c23.496-14.605,19.266-26.895,63.943-105  c29.959-51.721,20.165-22.37,23.27-82.381c1.251-14.697,0.924-22.085,4.77-35.716c6.117-26.625-18.518-99.501-27.166-121.164  c-0.761-3.036-6.608-24.003-7.926-27.469c-0.223-1.011-15.403-64.471-16.298-66.662c-0.106-2.274-2.565-15.055-4.289-17.475  l1.052,0.865c-13.758-58.661-0.679-18.203-20.631-64.879c-1.854-4.458-2.621-9.459-5.358-13.48  c-0.363-9.886-16.219-43.249,3.37-91.261c-1.213-1.141-2.389-2.318-3.352-3.655c1.382,0.704,2.603,1.667,3.798,2.684  c2.915-6.624,5.947-13.213,9.584-19.481c-0.437-0.294-1.293-0.865-1.721-1.159c0.526,0.053,1.578,0.169,2.104,0.223  c3.035-4.804-0.156-0.451,9.352-15.397c-0.365-0.276-1.088-0.838-1.453-1.114c0.446,0.134,1.328,0.41,1.765,0.544  c13.369-19.735,14.917-20.544,24.723-31.865c-0.401-0.187-1.204-0.571-1.605-0.767c0.455,0.134,1.346,0.383,1.801,0.508  c2.859-3.268,6.628-8.05,7.819-9.522c43.703-56.393,42.548-59.961,30.17-86.526c-5.035-10.529-48.402-92.746-71.067-110.492  c-10.846-8.472-12.849,1.695-13.677,3.317c-12.71,26.437-72.153,80.274-75.632,85.492c-52.879,77.42-164.624,44.771-211.809,45.086  c1.482,6.653,4.014,21.228-2.755,20.105c-22.958-0.878-36.262-1.324-40.468,0.036c-10.636-0.749-22.423-2.523-30.162-10.601  c0.08-6.366,0.205-12.732,0.499-19.088c-25.167-1.681-59.429-7.745-72.841-29.27c-31.927-47.739-38.398-113.216-57.738-117.169  c-14.801-2.416-12.386,66.201-8.88,84.93c1.694-0.071,3.388-0.258,5.037-0.713c0.571,0.125,1.694,0.383,2.265,0.508  c-2.416-0.053-4.779,0.464-7.133,0.909c5.545,26.891,19.899,50.084,35.85,80.883c0.633-0.33,1.266-0.651,1.908-0.963l1.168,0.036  c-0.909,0.428-2.184,0.571-2.514,1.694c6.546,15.127,33.638,53.028,36.126,88.14l0.927-0.401c-0.205,0.312-0.615,0.927-0.82,1.239  c0.878,6.205,0.838,20.247,0.838,20.247c0.232-0.062,0.695-0.178,0.918-0.232c-0.499,0.312-0.999,0.624-1.507,0.918  c1.56,24.407-16.626,85.224-21.166,130.026c-9.352,44.296-1.661,20.192-23.047,108.824c-2.416,7.32-70.817,263.679-72.636,265.214  c0.312-0.134,0.615-0.276,0.9-0.437c13.275-33.867,20.952-72.163,20.952-72.163c29.483,42.926,92.876,117.44,93.775,118.444  c16.042,17.971,29.973,24.452,34.976,42.26c-1.364,2.407,0.232,5.073,0.223,7.623c0.588,4.271-0.695,8.71,0.704,12.883  c-1.568,10.048-7.961,23.84-13.944,31.963c-7.008-0.089-14.006-0.223-20.996-0.535c-4.862,23.947-3.516,54.441-12.206,90.654  c-6.467,22.486-9.689,23.371-16.69,27.888c-13.918,7.186-32.981,5.902-42.75-5.1c-1.489-3.058-0.82-6.491-0.749-9.727  c3.039-70.095,17.498-89.935,4.672-117.098c-2.541,4.217-3.834,9.058-6.277,13.329c-2.791,1.213-9.881-12.052-14.604-19.659  c-10.964-18.353-24.809-41.549-40.325-56.16c-20.388,101.047-22.447,108.279-15.085,154.062  c5.392,34.394,19.439,75.165,32.248,88.292c9.502,7.743,8.948,26.554,8.158,38.881c-1.558,5.561-20.29,9.035-28.878,9.843  c-55.131,3.616-63.466-18.582-79.501-51.55c-7.114,0.29-13.778,0.51-17.564,0.526c-0.34-0.373-11.252-12.243-11.965-13.035  c-4.886-0.241-9.754-0.999-14.648-0.811c-1.655-1.512,2.662-139.653,2.915-144.059c0.499,3.923,0.027,7.899,0.58,11.822  c0.791-2.663,1.212-19.283-0.187-22.726c1.489-71.936,10.694-143.063,12.571-179.757c-4.49-4.446-15.61-16.933-18.25-19.891  c-61.961-68.709-58.499-78.409-60.368-102.94c-0.446,0.036-1.337,0.107-1.783,0.143c0.41-0.241,1.248-0.722,1.667-0.972  c-0.54-31.88,0.011-46.065,0.08-47.066c1.393-3.848,1.187-86.294,0.553-89.023c6.323-54.685,3.54-23.043,7.427-53.066  c0.431-0.89,10.267-51.215,10.69-56.445c1.153-3.126,4.368-20.815,4.485-28.833c0.276-0.455,0.82-1.373,1.088-1.828l-1.489,0.472  c0.312-0.392,0.954-1.168,1.266-1.56c-0.098-0.678-0.294-2.042-0.392-2.728c0.285,0.802,0.571,1.605,0.865,2.425  c0.209-10.651,13.212-58.637,11.724-71.512l-1.346-0.053c0.455-0.054,1.355-0.161,1.81-0.214c2.162-33.75,2.41-36-0.267-37.365  c-3.167-30.691-18.484-76.592-23.644-92.42c-2.8,0.285-5.537,0.954-8.3,1.444c2.657-0.829,5.421-1.213,8.131-1.81  c-0.001-0.001-5.505-14.124-9.513-22.066c-16.93-32.556-27.868-82.757-32.453-112.997c-1.213-0.196-2.398-0.383-3.602-0.58  c0.9,0.116,2.701,0.348,3.602,0.464c-9.175-49.886,4.187-81.507-25.249-113.461c-8.586-8.621-18.001-17.403-30.117-20.515  c-4.761-0.686-8.452,3.673-10.726,7.32c-4.961,9.682-0.851,35.409-0.82,46.308c-1.077,2.985-1.309,17.489,0.036,20.408  c-0.727,12.003-4.9,32.758-5.002,49.295c0,30.822,13.011,31.023,22.45,58.05c7.138,22.571-1.711,32.13,6.08,51.354  c5.679,9.957,12.218,6.802,25.597,13.784c1.623,0.927,3.878,2.372,3.317,4.574c-3.659,6.473-21.97,8.915-29.261,9.665  c-4.837,0.379-16.719,5.112-27.219-1.328c-10.882-6.578-21.061-16.536-37.651-20.256c-0.241-0.303-0.713-0.909-0.945-1.213  c-1.114,0.187-2.22,0.374-3.317,0.571c-1.605-0.169-3.201-0.348-4.797-0.499c2.701,0.16,5.483,0.41,8.104-0.526  c-1.364-5.786-0.936-11.893,1.052-17.475c24.708-80.899-34.114-107.369-39.532-212.87c1.998-4.761,0.227-7.603,0.802-21.808  c0.045-2.55,0.446-5.225-0.74-7.587c0.521-27.498,11.887-34.48,28.61-45.131c27.151-17.118,67.364-36.173,102.842-36.492  c3.637,1.379,43.796,1.375,47.173,0c45.962-0.102,57.146,4.294,84.075-12.437c-1.025-6.116-2.175-12.223-3.406-18.304  c-2.978-0.339-6.651,0.098-8.925-2.122c-1.863-5.848-5.06-27.819-7.391-39.906c-0.259-5.902-4.262-12.197-1.061-17.831  c1.212-0.357,2.443-0.669,3.7-0.918c-1.563-8.113-2.287-17.353-2.22-20.426c1.237-2.774,1.263-14.033-0.018-16.761  C288.461,93.47,305.392,73.167,325.566,60.7 M1156.772,144.016c1.635,1.326,10.443,6.384,13.249,15.977  c1.823,5.547,0.04,12.636,0.214,15.522l-0.187-0.33c-0.508,5.947-1.587,11.867-3.45,17.546h0.544h-0.597  c-0.481,2.015-1.997,3.611-2.479,5.581c1.98,21.85-1.628,26.669-2.826,37.633c-2.327,9.593-3.878,19.409-6.339,28.994l0.588-0.018  l-0.633,0.053c-0.339,1.328-0.606,2.657-0.82,4.012l-0.16,0.107c-4.808,17.171-0.381,8.651-9.887,37.223  c12.072-15.326,27.175-28.699,45.042-36.822c30.202-36.217,56.071-57.123,56.071-57.123l0.205,0.009  c6.045-8.907,12.224-17.715,18.393-26.533c-0.433-0.364-17.545-14.906-18.027-15.201l0.143-0.419c-3.397-2.47-6.161-5.67-9.21-8.514  c-6.633-2.541-13.186-5.314-19.9-7.632v-0.089c-1.01-0.325-43.135-16.276-52.228-14.845  C1161.898,140.771,1159.402,142.501,1156.772,144.016 M123.065,368.735c0.624,7.106-0.874,14.47,0.749,21.415  c0-0.001,0.125-26.799,0.125-26.8C122.432,364.67,123.216,366.979,123.065,368.735 M407.554,688.691  c-8.55,2.55-17.35,4.208-25.882,6.785c56.744-8.931,97.521-30.14,117.642-48.572C471.675,666.456,439.998,679.517,407.554,688.691   M370.715,861.771c-37.294,96.53-56.793,199.104-65.913,301.919l-1.239-0.517c-0.053,2.924-1.364,6.562,0.455,9.103  c-0.045,0.517-0.116,1.533-0.152,2.042l-1.195-0.526c-0.214,2.96-1.123,6.41,0.455,9.121c-0.036,0.481-0.098,1.453-0.125,1.935  c-0.33-0.294-0.972-0.9-1.293-1.203c0.089,3.219-1.346,7.302,0.651,10.012c-0.062,0.981-0.143,1.979-0.232,2.996l-1.213-0.562  c-0.053,2.924-1.498,6.776,0.686,9.156c-0.259,5.572-0.972,11.145-0.642,16.726c0.357-6.615,0.838-13.24,1.658-19.828l0.713,1.204  c1.195-2.22,0.615-4.966,0.669-7.373c-0.214-0.25-0.633-0.731-0.847-0.981c0.348-4.19,0.865-8.363,1.159-12.553  c0.321,0.276,0.963,0.838,1.284,1.123c-0.071-2.942,1.239-6.544-0.526-9.058C323.911,983.688,366.461,879.027,370.715,861.771z"/>
</svg>